<svg width="207" height="206" viewBox="0 0 207 206" fill="none" xmlns="http://www.w3.org/2000/svg">
<path d="M94.2094 195.209C94.2964 194.109 94.9961 193.378 96.4157 193.49L98.4255 193.649L98.1317 197.365L96.122 197.206C94.7024 197.094 94.1211 196.326 94.2094 195.209ZM99.8328 198.992L100.709 187.907L98.8906 187.763L98.5402 192.197L97.1525 192.087L94.9509 187.452L92.7817 187.28L95.1621 192.091C93.2593 192.406 92.4466 193.754 92.3432 195.062C92.2008 196.864 93.373 198.482 96.0048 198.689L99.8328 198.992Z" fill="#4361EE"/>
<path d="M82.57 192.813C81.2447 192.508 80.3939 191.426 80.6678 190.093L85.4234 191.188C84.924 192.502 83.7706 193.09 82.57 192.813ZM79.6242 187.21L81.5421 187.651C82.0239 187.056 82.754 186.666 83.8454 186.917C85.1552 187.219 85.9712 188.31 85.7693 189.757L79.205 188.246C79.09 188.531 79.0098 188.808 78.9416 189.105C78.36 191.631 79.6995 193.729 82.1474 194.292C84.6889 194.877 86.8337 193.549 87.4548 190.851C88.0758 188.154 86.6536 185.988 84.1901 185.42C82.0852 184.936 80.4522 185.824 79.6242 187.21Z" fill="#4361EE"/>
<path d="M75.1029 187.656C76.0959 185.124 75.0664 182.709 72.9363 181.874C71.5659 181.336 70.3258 181.606 69.5299 182.102L70.0089 180.88L68.2959 180.209L65.0773 188.416L66.7903 189.088L67.2576 187.896C67.5012 188.765 68.1975 189.794 69.5828 190.338C71.7426 191.185 74.1098 190.188 75.1029 187.656ZM68.3967 184.992C69.0918 183.219 70.6897 182.694 71.9707 183.197C73.2368 183.693 74.0552 185.2 73.3601 186.972C72.665 188.745 71.0697 189.219 69.8036 188.723C68.5225 188.22 67.7074 186.749 68.3967 184.992Z" fill="#4361EE"/>
<path d="M64.2379 178.041L62.6349 177.171L56.9858 187.576L58.5888 188.447L64.2379 178.041Z" fill="#4361EE"/>
<path d="M38.8869 173.726L43.5597 177.716L50.79 169.246L46.1172 165.257L45.1511 166.389L48.4367 169.194L46.2239 171.786L43.3034 169.292L42.3373 170.424L45.2578 172.917L43.1386 175.4L39.853 172.595L38.8869 173.726Z" fill="#4361EE"/>
<path d="M36.2341 158.348C33.9276 160.545 37.9882 163.587 36.666 164.773C36.2253 165.168 35.5856 165.054 34.934 164.328C34.2718 163.589 34.2696 162.796 34.7987 162.235L33.581 160.877C32.3347 162.124 32.4125 163.816 33.7478 165.305C35.1364 166.854 36.8581 167.072 37.9063 166.132C40.3126 163.975 36.1558 160.825 37.4423 159.671C37.895 159.265 38.6024 159.383 39.3074 160.169C39.9804 160.92 39.9989 161.827 39.5056 162.356L40.7661 163.761C41.9039 162.634 41.8396 160.693 40.4296 159.12C39.041 157.572 37.3419 157.354 36.2341 158.348Z" fill="#4361EE"/>
<path d="M33.0397 154.023C34.5063 152.993 34.4824 151.818 33.5814 150.534L32.754 149.356L31.51 150.229L32.1535 151.146C32.5948 151.774 32.5193 152.14 31.9824 152.517L27.9884 155.321L26.7565 153.566L25.5387 154.421L26.7706 156.176L24.9766 157.436L26.0338 158.942L27.8278 157.682L28.4254 158.533L29.6433 157.678L29.0457 156.827L33.0397 154.023Z" fill="#4361EE"/>
<path d="M26.7112 148.112C29.1192 146.847 29.9207 144.347 28.8566 142.322C28.1721 141.019 27.0577 140.411 26.1316 140.265L27.2931 139.655L26.4374 138.026L18.6327 142.126L19.4884 143.755L20.6216 143.16C20.2372 143.976 20.0902 145.21 20.7822 146.527C21.8611 148.581 24.3033 149.377 26.7112 148.112ZM23.3837 141.709C25.0692 140.823 26.621 141.472 27.2609 142.69C27.8934 143.894 27.5262 145.569 25.8406 146.455C24.1551 147.34 22.6384 146.655 22.0059 145.451C21.366 144.233 21.7123 142.587 23.3837 141.709Z" fill="#4361EE"/>
<path d="M22.3932 134.332C24.0733 133.709 24.3488 132.566 23.8034 131.096L23.3024 129.745L21.8774 130.274L22.267 131.324C22.5341 132.044 22.3682 132.379 21.7532 132.607L17.1779 134.305L16.4321 132.295L15.0371 132.812L15.7829 134.822L13.7278 135.585L14.3679 137.31L16.423 136.547L16.7847 137.522L18.1798 137.005L17.818 136.03L22.3932 134.332Z" fill="#4361EE"/>
<path d="M13.904 123.485C13.5917 122.161 14.1865 120.919 15.5029 120.576L16.6232 125.326C15.2243 125.458 14.1868 124.684 13.904 123.485ZM17.628 118.365L18.0799 120.28C18.8266 120.45 19.4994 120.932 19.7565 122.022C20.065 123.33 19.4473 124.544 18.0596 125.003L16.5131 118.447C16.2062 118.47 15.9222 118.521 15.6264 118.591C13.1036 119.186 11.8139 121.315 12.3906 123.76C12.9894 126.298 15.1293 127.634 17.8234 126.999C20.5175 126.363 21.8318 124.13 21.2515 121.669C20.7556 119.567 19.2369 118.495 17.628 118.365Z" fill="#4361EE"/>
<path d="M15.8964 97.9261C11.8324 97.9011 13.3642 103.799 10.8523 103.783C9.78031 103.777 9.27333 102.957 9.31182 101.902C9.3509 100.75 10.0429 100.098 10.7953 100.039L10.8077 98.0228C8.90273 98.1711 7.77351 99.6682 7.76044 101.796C7.74648 104.068 8.95293 105.628 10.9049 105.64C15.0008 105.665 13.2931 99.7501 15.9811 99.7666C16.925 99.7724 17.6086 100.497 17.6007 101.777C17.593 103.041 16.8531 103.676 15.9406 103.75L15.9286 105.702C17.8966 105.715 19.1231 104.01 19.1367 101.786C19.152 99.3061 17.5603 97.9363 15.8964 97.9261Z" fill="#4361EE"/>
<path d="M19.5688 93.2591L19.7963 91.4493L11.0491 90.3499L10.8216 92.1596L19.5688 93.2591ZM9.77847 91.0932C9.85828 90.4582 9.41413 89.8863 8.76326 89.8045C8.11238 89.7227 7.54052 90.1669 7.46071 90.8019C7.37889 91.4528 7.82304 92.0246 8.47392 92.1064C9.1248 92.1882 9.69666 91.7441 9.77847 91.0932Z" fill="#4361EE"/>
<path d="M22.3248 79.315L22.7698 77.5627L17.7298 76.2828C15.3416 75.6763 13.7034 76.8616 13.1954 78.8621C12.9355 79.8856 13.114 80.9379 13.6661 81.6889L12.6891 81.4408L12.2402 83.2087L20.785 85.3786L21.2339 83.6107L16.4575 82.3977C14.8912 82 14.3014 80.9423 14.6322 79.6396C14.9591 78.3525 15.9821 77.7043 17.5484 78.1021L22.3248 79.315Z" fill="#4361EE"/>
<path d="M20.1227 71.8173C22.6764 72.8853 25.021 71.9235 25.9964 69.5913C26.8298 67.5985 26.266 65.8366 24.8632 64.7122L24.1039 66.5278C24.8156 67.1897 24.9992 67.9949 24.5794 68.9986C24.0114 70.3566 22.6311 70.8373 20.845 70.0903C19.0737 69.3495 18.4465 68.0293 19.0145 66.6712C19.4342 65.6675 20.2078 65.2279 21.1074 65.2746L21.8667 63.459C19.9631 63.2005 18.4308 64.0859 17.5974 66.0786C16.622 68.4108 17.5838 70.7555 20.1227 71.8173Z" fill="#4361EE"/>
<path d="M25.0361 54.9602C25.7339 53.7929 27.0256 53.3161 28.2093 53.9864L25.7054 58.1751C24.6091 57.2961 24.404 56.0177 25.0361 54.9602ZM31.2742 53.8799L30.2644 55.5691C30.6825 56.2105 30.8293 57.0253 30.2546 57.9866C29.565 59.1402 28.276 59.5813 26.9606 58.9441L30.4169 53.1624C30.1806 52.9652 29.9416 52.8037 29.6807 52.6477C27.4559 51.3178 25.0477 51.9473 23.7588 54.1034C22.4206 56.342 23.0255 58.7914 25.4014 60.2116C27.7772 61.6319 30.2759 60.9446 31.573 58.7747C32.6813 56.9207 32.3381 55.0938 31.2742 53.8799Z" fill="#4361EE"/>
<path d="M40.8722 45.7303L46.3219 40.1835L45.2377 39.1182L41.683 42.7362C41.7738 40.201 42.2515 36.6328 40.2314 34.648C38.7363 33.1791 36.7786 33.1398 35.119 34.8289C33.6724 36.3012 33.4075 38.3287 35.1659 40.1461L36.3994 38.8907C35.4971 37.937 35.3402 36.8182 36.2373 35.9052C37.1904 34.9351 38.1539 35.1416 39.0213 35.9938C40.6534 37.5973 40.1303 41.1433 39.9249 44.7995L40.8722 45.7303Z" fill="#4361EE"/>
<path d="M46.2303 32.6023C48.2744 35.3092 50.5322 36.8122 53.1369 34.8452C55.7417 32.8782 54.914 30.2953 52.8699 27.5884C50.8643 24.9326 48.6066 23.4296 46.0018 25.3966C43.3971 27.3636 44.2248 29.9465 46.2303 32.6023ZM51.4398 28.6683C52.8186 30.4942 53.8323 32.2349 52.1342 33.5173C50.436 34.7997 49.0392 33.3483 47.6604 31.5224C46.3491 29.7859 45.3064 28.0069 47.0046 26.7245C48.7028 25.4421 50.1285 26.9318 51.4398 28.6683Z" fill="#4361EE"/>
<path d="M60.2235 29.8635L67.05 26.1399L66.3221 24.8055L61.8694 27.2343C62.693 24.8349 64.187 21.5596 62.8309 19.0734C61.8272 17.2333 59.9654 16.6268 57.8866 17.7607C56.0746 18.7491 55.2318 20.6122 56.3862 22.8621L57.9313 22.0193C57.3452 20.8445 57.5201 19.7285 58.6438 19.1155C59.8377 18.4643 60.6997 18.9419 61.282 20.0094C62.3776 22.018 60.8466 25.2589 59.5876 28.6977L60.2235 29.8635Z" fill="#4361EE"/>
<path d="M71.0601 24.386L78.3466 21.6708L77.8159 20.2465L73.0631 22.0175C74.2195 19.7596 76.1641 16.7299 75.1752 14.0762C74.4434 12.1121 72.6867 11.247 70.4678 12.0738C68.5337 12.7945 67.4346 14.5188 68.2573 16.9101L69.9065 16.2955C69.4934 15.0493 69.8252 13.9695 71.0247 13.5226C72.2991 13.0477 73.0844 13.643 73.5089 14.7824C74.3078 16.9264 72.3316 19.9167 70.5964 23.1415L71.0601 24.386Z" fill="#4361EE"/>
<path d="M90.4872 13.9469L97.0167 13.1669L96.8345 11.6417L90.305 12.4217L90.4872 13.9469Z" fill="#4361EE"/>
<path d="M117.849 11.2196C117.713 12.3151 116.981 13.0142 115.568 12.8386L113.567 12.5899L114.027 8.89039L116.027 9.13904C117.441 9.31467 117.987 10.1081 117.849 11.2196ZM112.4 7.18879L111.029 18.2239L112.839 18.4489L113.388 14.0348L114.769 14.2065L116.761 18.9363L118.92 19.2047L116.757 14.2924C118.672 14.0628 119.545 12.7524 119.707 11.4504C119.929 9.65624 118.831 7.98801 116.211 7.6624L112.4 7.18879Z" fill="#4361EE"/>
<path d="M129.369 14.1342C130.68 14.4984 131.481 15.6179 131.148 16.9368L126.446 15.6301C127.004 14.3403 128.182 13.8043 129.369 14.1342ZM132.061 19.8643L130.165 19.3373C129.657 19.9102 128.91 20.2673 127.831 19.9674C126.536 19.6075 125.77 18.4812 126.036 17.044L132.526 18.8478C132.654 18.5677 132.747 18.2945 132.828 18.0016C133.522 15.5043 132.278 13.3484 129.858 12.6757C127.345 11.9774 125.143 13.2087 124.402 15.8756C123.66 18.5425 124.984 20.7704 127.42 21.4473C129.501 22.0257 131.172 21.2114 132.061 19.8643Z" fill="#4361EE"/>
<path d="M136.598 19.6208C135.493 22.1061 136.413 24.5643 138.504 25.4941C139.848 26.0923 141.099 25.8782 141.917 25.4187L141.384 26.6175L143.065 27.3653L146.648 19.3101L144.966 18.5623L144.446 19.7319C144.242 18.8529 143.592 17.7935 142.233 17.1888C140.113 16.246 137.703 17.1355 136.598 19.6208ZM143.178 22.5826C142.404 24.3223 140.785 24.7751 139.527 24.2159C138.285 23.6632 137.535 22.1213 138.308 20.3816C139.082 18.6419 140.697 18.2395 141.94 18.7922C143.197 19.3514 143.945 20.8576 143.178 22.5826Z" fill="#4361EE"/>
<path d="M147.022 29.7122L148.584 30.6534L154.693 20.5113L153.131 19.5701L147.022 29.7122Z" fill="#4361EE"/>
<path d="M172.154 35.1574L167.665 30.9631L160.062 39.1004L164.552 43.2948L165.568 42.2074L162.411 39.2583L164.737 36.768L167.543 39.3895L168.559 38.3021L165.753 35.6807L167.982 33.2956L171.138 36.2447L172.154 35.1574Z" fill="#4361EE"/>
<path d="M174.116 50.6394C176.518 48.5477 172.598 45.3265 173.972 44.2012C174.43 43.8261 175.064 43.9688 175.682 44.7239C176.311 45.4913 176.277 46.2839 175.724 46.82L176.88 48.2311C178.18 47.0417 178.178 45.3474 176.911 43.8001C175.593 42.191 173.883 41.8957 172.794 42.7879C170.293 44.8357 174.305 48.1682 172.968 49.2631C172.498 49.6484 171.796 49.499 171.127 48.682C170.488 47.9022 170.51 46.9948 171.027 46.4891L169.831 45.0284C168.644 46.1041 168.621 48.0461 169.959 49.68C171.277 51.2892 172.965 51.5822 174.116 50.6394Z" fill="#4361EE"/>
<path d="M177.113 55.1028C175.602 56.0658 175.573 57.2414 176.416 58.5638L177.19 59.7782L178.472 58.9614L177.87 58.0168C177.457 57.3691 177.549 57.0071 178.102 56.6546L182.218 54.0321L183.37 55.8403L184.625 55.0406L183.473 53.2325L185.321 52.0546L184.332 50.5028L182.484 51.6808L181.925 50.8037L180.67 51.6033L181.229 52.4804L177.113 55.1028Z" fill="#4361EE"/>
<path d="M183.171 61.2915C180.709 62.4474 179.796 64.9086 180.768 66.9797C181.394 68.3122 182.48 68.9689 183.399 69.1562L182.211 69.7138L182.993 71.3794L190.973 67.6329L190.191 65.9673L189.033 66.5113C189.453 65.7129 189.655 64.4868 189.023 63.1398C188.037 61.0397 185.633 60.1357 183.171 61.2915ZM186.208 67.8372C184.485 68.6463 182.964 67.9287 182.379 66.6831C181.801 65.452 182.243 63.7952 183.966 62.9861C185.69 62.177 187.174 62.9295 187.752 64.1605C188.337 65.4061 187.917 67.0348 186.208 67.8372Z" fill="#4361EE"/>
<path d="M186.868 75.2506C185.161 75.7982 184.835 76.9279 185.314 78.4209L185.754 79.7921L187.201 79.3276L186.859 78.2612C186.624 77.5299 186.805 77.2031 187.43 77.0026L192.076 75.5116L192.732 77.553L194.148 77.0984L193.493 75.0569L195.58 74.3871L195.018 72.6351L192.931 73.3049L192.613 72.3146L191.196 72.7693L191.514 73.7596L186.868 75.2506Z" fill="#4361EE"/>
<path d="M194.863 86.4672C195.115 87.8036 194.466 89.0174 193.135 89.3015L192.229 84.5065C193.632 84.4365 194.634 85.2567 194.863 86.4672ZM190.913 91.4151L190.548 89.4814C189.809 89.279 189.159 88.767 188.951 87.6665C188.701 86.3459 189.372 85.1605 190.779 84.7642L192.031 91.3829C192.338 91.3736 192.624 91.3359 192.923 91.2794C195.47 90.7978 196.854 88.7288 196.387 86.2605C195.902 83.6979 193.824 82.267 191.105 82.7813C188.385 83.2955 186.972 85.4678 187.441 87.9518C187.843 90.0742 189.312 91.2131 190.913 91.4151Z" fill="#4361EE"/>
<path d="M191.728 111.911C195.787 112.118 194.521 106.158 197.029 106.286C198.1 106.34 198.57 107.181 198.484 108.234C198.394 109.383 197.673 110.003 196.919 110.029L196.816 112.042C198.726 111.979 199.921 110.534 200.029 108.409C200.145 106.14 199.009 104.528 197.06 104.429C192.969 104.22 194.41 110.206 191.726 110.069C190.783 110.021 190.133 109.267 190.198 107.988C190.262 106.726 191.03 106.124 191.945 106.091L192.044 104.141C190.079 104.041 188.777 105.689 188.664 107.91C188.538 110.387 190.066 111.826 191.728 111.911Z" fill="#4361EE"/>
<path d="M187.85 116.409L187.542 118.207L196.231 119.697L196.54 117.899L187.85 116.409ZM197.534 119.011C197.426 119.642 197.844 120.233 198.491 120.344C199.137 120.455 199.728 120.037 199.836 119.406C199.947 118.759 199.529 118.168 198.883 118.057C198.236 117.946 197.645 118.365 197.534 119.011Z" fill="#4361EE"/>
<path d="M184.473 130.216L183.95 131.947L188.928 133.451C191.286 134.164 192.976 133.053 193.573 131.077C193.878 130.066 193.747 129.007 193.229 128.232L194.194 128.524L194.722 126.778L186.283 124.227L185.755 125.973L190.472 127.399C192.019 127.866 192.561 128.949 192.172 130.236C191.788 131.507 190.737 132.109 189.19 131.641L184.473 130.216Z" fill="#4361EE"/>
<path d="M186.337 137.804C183.834 136.623 181.449 137.479 180.37 139.765C179.448 141.719 179.932 143.504 181.283 144.69L182.123 142.91C181.442 142.217 181.294 141.405 181.759 140.421C182.387 139.09 183.787 138.671 185.538 139.497C187.275 140.317 187.842 141.664 187.214 142.995C186.75 143.979 185.957 144.383 185.061 144.296L184.221 146.076C186.111 146.42 187.681 145.604 188.603 143.65C189.682 141.364 188.826 138.979 186.337 137.804Z" fill="#4361EE"/>
<path d="M180.674 154.425C179.925 155.56 178.613 155.978 177.46 155.256L180.149 151.183C181.205 152.11 181.353 153.397 180.674 154.425ZM174.394 155.225L175.478 153.582C175.089 152.923 174.979 152.102 175.596 151.168C176.337 150.046 177.644 149.663 178.93 150.359L175.218 155.98C175.445 156.187 175.677 156.36 175.931 156.527C178.094 157.955 180.528 157.434 181.912 155.338C183.349 153.162 182.854 150.687 180.544 149.162C178.234 147.637 175.707 148.212 174.315 150.321C173.124 152.124 173.385 153.964 174.394 155.225Z" fill="#4361EE"/>
<path d="M164.441 162.936L158.748 168.234L159.784 169.346L163.497 165.891C163.292 168.42 162.655 171.963 164.585 174.036C166.013 175.571 167.967 175.698 169.7 174.084C171.211 172.678 171.567 170.665 169.891 168.77L168.603 169.969C169.461 170.963 169.568 172.087 168.631 172.959C167.636 173.886 166.682 173.636 165.854 172.746C164.295 171.071 164.977 167.552 165.345 163.909L164.441 162.936Z" fill="#4361EE"/>
<path d="M158.5 175.811C156.579 173.016 154.391 171.413 151.701 173.262C149.011 175.11 149.722 177.727 151.643 180.523C153.527 183.266 155.716 184.868 158.406 183.02C161.096 181.172 160.385 178.554 158.5 175.811ZM153.12 179.508C151.824 177.622 150.889 175.838 152.643 174.633C154.397 173.428 155.728 174.94 157.023 176.826C158.256 178.62 159.217 180.444 157.464 181.649C155.71 182.854 154.352 181.302 153.12 179.508Z" fill="#4361EE"/>
<path d="M144.399 177.921L137.412 181.335L138.08 182.701L142.637 180.474C141.706 182.834 140.067 186.039 141.311 188.584C142.231 190.467 144.064 191.156 146.191 190.116C148.046 189.21 148.971 187.387 147.919 185.087L146.337 185.86C146.87 187.06 146.645 188.167 145.495 188.729C144.274 189.326 143.434 188.81 142.9 187.718C141.895 185.662 143.57 182.493 144.982 179.114L144.399 177.921Z" fill="#4361EE"/>
<path d="M133.328 182.908L125.927 185.294L126.393 186.741L131.22 185.184C129.964 187.388 127.886 190.328 128.755 193.023C129.398 195.018 131.114 195.961 133.368 195.234C135.332 194.601 136.508 192.928 135.793 190.502L134.118 191.042C134.475 192.305 134.095 193.369 132.877 193.762C131.582 194.179 130.824 193.55 130.451 192.392C129.749 190.215 131.857 187.316 133.735 184.172L133.328 182.908Z" fill="#4361EE"/>
<path d="M113.453 192.467L106.895 192.954L107.008 194.486L113.566 193.999L113.453 192.467Z" fill="#4361EE"/>
</svg>
