<svg width="400" height="423" viewBox="0 0 400 423" fill="none" xmlns="http://www.w3.org/2000/svg">
<rect width="400" height="423" fill="#1E1E1E"/>
<g id="Rezilla - Real Estate - Homepage - Web" clip-path="url(#clip0_0_1)">
<rect width="1440" height="8501" transform="translate(-134 -3363)" fill="white"/>
<rect id="Rectangle 22" opacity="0.3" x="-134" y="-232" width="1440" height="752" fill="#D4D4D4"/>
<g id="Group 47">
<g id="Rectangle 17" filter="url(#filter0_d_0_1)">
<rect x="26" y="20" width="340" height="363" rx="30" fill="white"/>
</g>
<g id="Ellipse 10" filter="url(#filter1_d_0_1)">
<circle cx="196" cy="125" r="45" fill="#4361EE"/>
</g>
<g id="&#240;&#159;&#166;&#134; icon &#34;search&#34;">
<path id="Vector" d="M214.633 136.976L207.876 130.219L202.679 128.072C204.409 125.611 205.337 122.675 205.333 119.667C205.333 111.579 198.754 105 190.667 105C182.579 105 176 111.579 176 119.667C176 127.754 182.579 134.333 190.667 134.333C193.701 134.337 196.662 133.394 199.135 131.635L201.277 136.819L208.033 143.576C208.467 144.009 208.981 144.353 209.547 144.587C210.113 144.822 210.72 144.943 211.333 144.943C211.946 144.943 212.553 144.822 213.119 144.588C213.685 144.353 214.2 144.009 214.633 143.576C215.066 143.143 215.41 142.628 215.645 142.062C215.879 141.496 216 140.889 216 140.276C216 139.663 215.879 139.056 215.645 138.49C215.41 137.924 215.067 137.41 214.633 136.976ZM178.667 119.667C178.667 113.05 184.05 107.667 190.667 107.667C197.283 107.667 202.667 113.05 202.667 119.667C202.667 126.283 197.283 131.667 190.667 131.667C184.05 131.667 178.667 126.283 178.667 119.667ZM212.748 141.69C212.372 142.065 211.864 142.275 211.333 142.275C210.803 142.275 210.294 142.065 209.919 141.69L203.538 135.309L201.547 130.49L206.367 132.481L212.748 138.862C213.122 139.237 213.332 139.746 213.332 140.276C213.332 140.806 213.122 141.315 212.748 141.69Z" fill="white" stroke="white" stroke-width="0.6"/>
</g>
<path id="Buy a New Home" d="M122.06 210.139C122.06 211.439 121.148 212.196 119.654 212.196H116.667V207.986H119.577C121.051 207.986 122.06 208.801 122.06 210.139ZM121.711 204.261C121.711 205.503 120.838 206.182 119.402 206.182H116.667V202.321H119.402C120.838 202.321 121.711 203.039 121.711 204.261ZM124.271 210.372C124.271 208.762 123.107 207.326 121.672 207.074C122.972 206.609 123.961 205.619 123.961 203.99C123.961 202.088 122.448 200.517 119.596 200.517H114.455V214H119.848C122.603 214 124.271 212.429 124.271 210.372ZM136.355 203.311H134.144V209.266C134.144 211.226 133.077 212.235 131.447 212.235C129.837 212.235 128.77 211.226 128.77 209.266V203.311H126.578V209.596C126.578 212.584 128.479 214.155 130.982 214.155C132.243 214.155 133.445 213.631 134.144 212.72V214H136.355V203.311ZM143.483 211.459L140.476 203.311H138.012L142.222 213.825L140.049 219.025H142.339L148.896 203.311H146.607L143.483 211.459ZM154.867 208.607C154.867 211.905 157.098 214.175 159.872 214.175C161.657 214.175 162.937 213.321 163.616 212.409V214H165.847V203.311H163.616V204.863C162.957 203.99 161.715 203.136 159.911 203.136C157.098 203.136 154.867 205.309 154.867 208.607ZM163.616 208.646C163.616 210.954 162.045 212.254 160.377 212.254C158.728 212.254 157.137 210.915 157.137 208.607C157.137 206.298 158.728 205.057 160.377 205.057C162.045 205.057 163.616 206.356 163.616 208.646ZM182.658 200.498V210.547L176.003 200.498H173.792V214H176.003V203.931L182.658 214H184.869V200.498H182.658ZM192.274 204.998C193.923 204.998 195.223 206.046 195.262 207.695H189.345C189.578 206.007 190.78 204.998 192.274 204.998ZM197.279 210.818H194.893C194.486 211.653 193.729 212.312 192.371 212.312C190.742 212.312 189.481 211.245 189.325 209.48H197.493C197.551 209.111 197.57 208.762 197.57 208.393C197.57 205.251 195.417 203.136 192.371 203.136C189.209 203.136 187.036 205.289 187.036 208.646C187.036 212.002 189.306 214.175 192.371 214.175C194.99 214.175 196.678 212.681 197.279 210.818ZM201.823 214H204.151L206.304 206.104L208.457 214H210.785L214.103 203.311H211.93L209.718 211.866L207.546 203.311H205.237L202.967 211.905L200.736 203.311H198.486L201.823 214ZM229.35 214H231.562V200.517H229.35V206.298H223.007V200.517H220.795V214H223.007V208.102H229.35V214ZM244.659 208.646C244.659 205.289 242.253 203.136 239.207 203.136C236.161 203.136 233.756 205.289 233.756 208.646C233.756 212.002 236.064 214.175 239.11 214.175C242.175 214.175 244.659 212.002 244.659 208.646ZM236.006 208.646C236.006 206.221 237.5 205.057 239.168 205.057C240.817 205.057 242.389 206.221 242.389 208.646C242.389 211.071 240.759 212.254 239.11 212.254C237.442 212.254 236.006 211.071 236.006 208.646ZM261.996 214H264.188V207.695C264.188 204.707 262.287 203.136 259.785 203.136C258.233 203.136 256.719 203.951 256.06 205.251C255.323 203.854 253.906 203.136 252.219 203.136C250.938 203.136 249.774 203.66 249.056 204.533V203.311H246.845V214H249.056V208.025C249.056 206.065 250.123 205.057 251.753 205.057C253.363 205.057 254.43 206.065 254.43 208.025V214H256.622V208.025C256.622 206.065 257.689 205.057 259.319 205.057C260.929 205.057 261.996 206.065 261.996 208.025V214ZM271.503 204.998C273.152 204.998 274.452 206.046 274.491 207.695H268.574C268.807 206.007 270.01 204.998 271.503 204.998ZM276.509 210.818H274.122C273.715 211.653 272.958 212.312 271.6 212.312C269.971 212.312 268.71 211.245 268.555 209.48H276.722C276.78 209.111 276.8 208.762 276.8 208.393C276.8 205.251 274.646 203.136 271.6 203.136C268.438 203.136 266.265 205.289 266.265 208.646C266.265 212.002 268.535 214.175 271.6 214.175C274.219 214.175 275.907 212.681 276.509 210.818Z" fill="#2B2B2B"/>
<path id="Donec porttitor euismod dignissim. Nullam a lacinia ipsum, nec dignissim purus." d="M103.415 233.848H99.9429V245H103.415C107.079 245 109.335 242.904 109.335 239.448C109.335 235.992 107.079 233.848 103.415 233.848ZM101.399 243.8V235.032H103.415C106.327 235.032 107.847 236.728 107.847 239.448C107.847 242.168 106.327 243.8 103.415 243.8H101.399ZM119.575 240.6C119.575 237.832 117.639 236.088 115.143 236.088C112.663 236.088 110.711 237.832 110.711 240.6C110.711 243.384 112.599 245.144 115.079 245.144C117.575 245.144 119.575 243.384 119.575 240.6ZM112.199 240.6C112.199 238.392 113.591 237.352 115.127 237.352C116.631 237.352 118.087 238.392 118.087 240.6C118.087 242.824 116.599 243.864 115.079 243.864C113.559 243.864 112.199 242.824 112.199 240.6ZM127.906 245H129.346V239.832C129.346 237.32 127.794 236.072 125.762 236.072C124.578 236.072 123.522 236.568 122.946 237.48V236.232H121.49V245H122.946V240.152C122.946 238.264 123.97 237.336 125.458 237.336C126.93 237.336 127.906 238.248 127.906 240.04V245ZM135.452 237.32C136.956 237.32 138.236 238.264 138.22 239.976H132.684C132.844 238.264 134.028 237.32 135.452 237.32ZM139.548 242.296H137.98C137.66 243.24 136.828 243.912 135.516 243.912C134.028 243.912 132.78 242.936 132.668 241.16H139.676C139.708 240.856 139.724 240.6 139.724 240.28C139.724 237.88 138.06 236.088 135.516 236.088C132.956 236.088 131.18 237.832 131.18 240.6C131.18 243.384 133.02 245.144 135.516 245.144C137.692 245.144 139.1 243.896 139.548 242.296ZM141.102 240.6C141.102 243.384 142.878 245.144 145.374 245.144C147.55 245.144 148.974 243.928 149.422 242.184H147.854C147.534 243.288 146.67 243.912 145.374 243.912C143.774 243.912 142.59 242.776 142.59 240.6C142.59 238.456 143.774 237.32 145.374 237.32C146.67 237.32 147.55 237.992 147.854 239.048H149.422C148.974 237.208 147.55 236.088 145.374 236.088C142.878 236.088 141.102 237.848 141.102 240.6ZM157.086 237.848V236.232H155.63V249.16H157.086V243.384C157.63 244.28 158.766 245.144 160.366 245.144C162.718 245.144 164.526 243.304 164.526 240.584C164.526 237.848 162.718 236.088 160.366 236.088C158.766 236.088 157.614 236.92 157.086 237.848ZM163.038 240.584C163.038 242.648 161.678 243.864 160.062 243.864C158.478 243.864 157.086 242.664 157.086 240.6C157.086 238.568 158.478 237.352 160.062 237.352C161.678 237.352 163.038 238.52 163.038 240.584ZM174.763 240.6C174.763 237.832 172.827 236.088 170.331 236.088C167.851 236.088 165.899 237.832 165.899 240.6C165.899 243.384 167.787 245.144 170.267 245.144C172.763 245.144 174.763 243.384 174.763 240.6ZM167.387 240.6C167.387 238.392 168.779 237.352 170.315 237.352C171.819 237.352 173.275 238.392 173.275 240.6C173.275 242.824 171.787 243.864 170.267 243.864C168.747 243.864 167.387 242.824 167.387 240.6ZM178.133 240.232C178.133 238.2 179.189 237.576 180.581 237.576H180.965V236.072C179.573 236.072 178.629 236.68 178.133 237.656V236.232H176.677V245H178.133V240.232ZM182.966 242.6C182.966 244.36 183.846 245 185.398 245H186.71V243.768H185.638C184.742 243.768 184.422 243.464 184.422 242.6V237.432H186.71V236.232H184.422V234.024H182.966V236.232H181.83V237.432H182.966V242.6ZM188.794 242.6C188.794 244.36 189.674 245 191.226 245H192.538V243.768H191.466C190.57 243.768 190.25 243.464 190.25 242.6V237.432H192.538V236.232H190.25V234.024H188.794V236.232H187.658V237.432H188.794V242.6ZM194.302 245H195.758V236.232H194.302V245ZM195.054 234.808C195.582 234.808 196.014 234.376 196.014 233.816C196.014 233.256 195.582 232.824 195.054 232.824C194.494 232.824 194.062 233.256 194.062 233.816C194.062 234.376 194.494 234.808 195.054 234.808ZM198.56 242.6C198.56 244.36 199.44 245 200.992 245H202.304V243.768H201.232C200.336 243.768 200.016 243.464 200.016 242.6V237.432H202.304V236.232H200.016V234.024H198.56V236.232H197.424V237.432H198.56V242.6ZM212.388 240.6C212.388 237.832 210.452 236.088 207.956 236.088C205.476 236.088 203.524 237.832 203.524 240.6C203.524 243.384 205.412 245.144 207.892 245.144C210.388 245.144 212.388 243.384 212.388 240.6ZM205.012 240.6C205.012 238.392 206.404 237.352 207.94 237.352C209.444 237.352 210.9 238.392 210.9 240.6C210.9 242.824 209.412 243.864 207.892 243.864C206.372 243.864 205.012 242.824 205.012 240.6ZM215.758 240.232C215.758 238.2 216.814 237.576 218.206 237.576H218.59V236.072C217.198 236.072 216.254 236.68 215.758 237.656V236.232H214.302V245H215.758V240.232ZM228.265 237.32C229.769 237.32 231.049 238.264 231.033 239.976H225.497C225.657 238.264 226.841 237.32 228.265 237.32ZM232.361 242.296H230.793C230.473 243.24 229.641 243.912 228.329 243.912C226.841 243.912 225.593 242.936 225.481 241.16H232.489C232.521 240.856 232.537 240.6 232.537 240.28C232.537 237.88 230.873 236.088 228.329 236.088C225.769 236.088 223.993 237.832 223.993 240.6C223.993 243.384 225.833 245.144 228.329 245.144C230.505 245.144 231.913 243.896 232.361 242.296ZM242.235 236.232H240.779V241.048C240.779 242.936 239.771 243.864 238.267 243.864C236.795 243.864 235.819 242.952 235.819 241.176V236.232H234.379V241.368C234.379 243.88 235.963 245.128 237.979 245.128C239.147 245.128 240.219 244.616 240.779 243.704V245H242.235V236.232ZM244.693 245H246.149V236.232H244.693V245ZM245.445 234.808C245.973 234.808 246.405 234.376 246.405 233.816C246.405 233.256 245.973 232.824 245.445 232.824C244.885 232.824 244.453 233.256 244.453 233.816C244.453 234.376 244.885 234.808 245.445 234.808ZM254.934 242.616C254.87 239.48 249.782 240.616 249.782 238.536C249.782 237.832 250.422 237.32 251.494 237.32C252.662 237.32 253.334 237.96 253.398 238.84H254.854C254.758 237.128 253.478 236.088 251.542 236.088C249.59 236.088 248.326 237.192 248.326 238.536C248.326 241.8 253.51 240.664 253.51 242.616C253.51 243.336 252.87 243.912 251.718 243.912C250.486 243.912 249.734 243.272 249.654 242.424H248.15C248.246 244.024 249.686 245.144 251.734 245.144C253.67 245.144 254.934 244.056 254.934 242.616ZM269.646 245H271.086V239.832C271.086 237.32 269.534 236.072 267.534 236.072C266.19 236.072 264.942 236.76 264.43 238.024C263.854 236.712 262.654 236.072 261.214 236.072C260.062 236.072 259.022 236.568 258.446 237.496V236.232H256.99V245H258.446V240.168C258.446 238.28 259.454 237.336 260.926 237.336C262.366 237.336 263.326 238.248 263.326 240.04V245H264.766V240.168C264.766 238.28 265.774 237.336 267.246 237.336C268.686 237.336 269.646 238.248 269.646 240.04V245ZM281.794 240.6C281.794 237.832 279.858 236.088 277.362 236.088C274.882 236.088 272.93 237.832 272.93 240.6C272.93 243.384 274.818 245.144 277.298 245.144C279.794 245.144 281.794 243.384 281.794 240.6ZM274.418 240.6C274.418 238.392 275.81 237.352 277.346 237.352C278.85 237.352 280.306 238.392 280.306 240.6C280.306 242.824 278.818 243.864 277.298 243.864C275.778 243.864 274.418 242.824 274.418 240.6ZM283.165 240.584C283.165 243.304 284.973 245.144 287.325 245.144C288.925 245.144 290.061 244.328 290.589 243.352V245H292.061V233.16H290.589V237.8C289.981 236.792 288.717 236.088 287.341 236.088C284.973 236.088 283.165 237.848 283.165 240.584ZM290.589 240.6C290.589 242.664 289.213 243.864 287.613 243.864C286.013 243.864 284.653 242.648 284.653 240.584C284.653 238.52 286.013 237.352 287.613 237.352C289.213 237.352 290.589 238.568 290.589 240.6ZM89.7427 266.584C89.7427 269.304 91.5507 271.144 93.9027 271.144C95.5027 271.144 96.6387 270.328 97.1667 269.352V271H98.6387V259.16H97.1667V263.8C96.5587 262.792 95.2947 262.088 93.9187 262.088C91.5507 262.088 89.7427 263.848 89.7427 266.584ZM97.1667 266.6C97.1667 268.664 95.7907 269.864 94.1907 269.864C92.5907 269.864 91.2307 268.648 91.2307 266.584C91.2307 264.52 92.5907 263.352 94.1907 263.352C95.7907 263.352 97.1667 264.568 97.1667 266.6ZM101.099 271H102.555V262.232H101.099V271ZM101.851 260.808C102.379 260.808 102.811 260.376 102.811 259.816C102.811 259.256 102.379 258.824 101.851 258.824C101.291 258.824 100.859 259.256 100.859 259.816C100.859 260.376 101.291 260.808 101.851 260.808ZM104.493 266.584C104.493 269.304 106.301 271.144 108.653 271.144C110.253 271.144 111.389 270.296 111.917 269.352V271.192C111.917 273.064 110.749 274.056 109.197 274.056C107.757 274.056 106.717 273.336 106.397 272.28H104.957C105.245 274.152 106.893 275.32 109.197 275.32C111.773 275.32 113.389 273.608 113.389 271.192V262.232H111.917V263.832C111.405 262.888 110.253 262.088 108.653 262.088C106.301 262.088 104.493 263.848 104.493 266.584ZM111.917 266.6C111.917 268.664 110.541 269.864 108.941 269.864C107.341 269.864 105.981 268.648 105.981 266.584C105.981 264.52 107.341 263.352 108.941 263.352C110.541 263.352 111.917 264.568 111.917 266.6ZM122.265 271H123.705V265.832C123.705 263.32 122.153 262.072 120.121 262.072C118.937 262.072 117.881 262.568 117.305 263.48V262.232H115.849V271H117.305V266.152C117.305 264.264 118.329 263.336 119.817 263.336C121.289 263.336 122.265 264.248 122.265 266.04V271ZM126.084 271H127.54V262.232H126.084V271ZM126.836 260.808C127.364 260.808 127.796 260.376 127.796 259.816C127.796 259.256 127.364 258.824 126.836 258.824C126.276 258.824 125.844 259.256 125.844 259.816C125.844 260.376 126.276 260.808 126.836 260.808ZM136.325 268.616C136.261 265.48 131.173 266.616 131.173 264.536C131.173 263.832 131.813 263.32 132.885 263.32C134.053 263.32 134.725 263.96 134.789 264.84H136.245C136.149 263.128 134.869 262.088 132.933 262.088C130.981 262.088 129.717 263.192 129.717 264.536C129.717 267.8 134.901 266.664 134.901 268.616C134.901 269.336 134.261 269.912 133.109 269.912C131.877 269.912 131.125 269.272 131.045 268.424H129.541C129.637 270.024 131.077 271.144 133.125 271.144C135.061 271.144 136.325 270.056 136.325 268.616ZM144.684 268.616C144.62 265.48 139.532 266.616 139.532 264.536C139.532 263.832 140.172 263.32 141.244 263.32C142.412 263.32 143.084 263.96 143.148 264.84H144.604C144.508 263.128 143.228 262.088 141.292 262.088C139.34 262.088 138.076 263.192 138.076 264.536C138.076 267.8 143.26 266.664 143.26 268.616C143.26 269.336 142.62 269.912 141.468 269.912C140.236 269.912 139.484 269.272 139.404 268.424H137.9C137.996 270.024 139.436 271.144 141.484 271.144C143.42 271.144 144.684 270.056 144.684 268.616ZM146.74 271H148.196V262.232H146.74V271ZM147.492 260.808C148.02 260.808 148.452 260.376 148.452 259.816C148.452 259.256 148.02 258.824 147.492 258.824C146.932 258.824 146.5 259.256 146.5 259.816C146.5 260.376 146.932 260.808 147.492 260.808ZM163.333 271H164.773V265.832C164.773 263.32 163.221 262.072 161.221 262.072C159.877 262.072 158.629 262.76 158.117 264.024C157.541 262.712 156.341 262.072 154.901 262.072C153.749 262.072 152.709 262.568 152.133 263.496V262.232H150.677V271H152.133V266.168C152.133 264.28 153.141 263.336 154.613 263.336C156.053 263.336 157.013 264.248 157.013 266.04V271H158.453V266.168C158.453 264.28 159.461 263.336 160.933 263.336C162.373 263.336 163.333 264.248 163.333 266.04V271ZM168.586 270.104C168.586 269.544 168.154 269.112 167.626 269.112C167.066 269.112 166.634 269.544 166.634 270.104C166.634 270.664 167.066 271.096 167.626 271.096C168.154 271.096 168.586 270.664 168.586 270.104ZM182.099 259.832V268.696L176.243 259.832H174.787V271H176.243V262.12L182.099 271H183.555V259.832H182.099ZM193.813 262.232H192.357V267.048C192.357 268.936 191.349 269.864 189.845 269.864C188.373 269.864 187.397 268.952 187.397 267.176V262.232H185.957V267.368C185.957 269.88 187.541 271.128 189.557 271.128C190.725 271.128 191.797 270.616 192.357 269.704V271H193.813V262.232ZM196.271 271H197.727V259.16H196.271V271ZM200.209 271H201.665V259.16H200.209V271ZM203.602 266.584C203.602 269.304 205.41 271.144 207.746 271.144C209.362 271.144 210.498 270.312 211.026 269.368V271H212.498V262.232H211.026V263.832C210.514 262.92 209.394 262.088 207.762 262.088C205.41 262.088 203.602 263.848 203.602 266.584ZM211.026 266.6C211.026 268.664 209.65 269.864 208.05 269.864C206.45 269.864 205.09 268.648 205.09 266.584C205.09 264.52 206.45 263.352 208.05 263.352C209.65 263.352 211.026 264.568 211.026 266.6ZM227.615 271H229.055V265.832C229.055 263.32 227.503 262.072 225.503 262.072C224.159 262.072 222.911 262.76 222.399 264.024C221.823 262.712 220.623 262.072 219.183 262.072C218.031 262.072 216.991 262.568 216.415 263.496V262.232H214.959V271H216.415V266.168C216.415 264.28 217.423 263.336 218.895 263.336C220.335 263.336 221.295 264.248 221.295 266.04V271H222.735V266.168C222.735 264.28 223.743 263.336 225.215 263.336C226.655 263.336 227.615 264.248 227.615 266.04V271ZM235.165 266.584C235.165 269.304 236.973 271.144 239.309 271.144C240.925 271.144 242.061 270.312 242.589 269.368V271H244.061V262.232H242.589V263.832C242.077 262.92 240.957 262.088 239.325 262.088C236.973 262.088 235.165 263.848 235.165 266.584ZM242.589 266.6C242.589 268.664 241.213 269.864 239.613 269.864C238.013 269.864 236.653 268.648 236.653 266.584C236.653 264.52 238.013 263.352 239.613 263.352C241.213 263.352 242.589 264.568 242.589 266.6ZM250.787 271H252.243V259.16H250.787V271ZM254.18 266.584C254.18 269.304 255.988 271.144 258.324 271.144C259.94 271.144 261.076 270.312 261.604 269.368V271H263.076V262.232H261.604V263.832C261.092 262.92 259.972 262.088 258.34 262.088C255.988 262.088 254.18 263.848 254.18 266.584ZM261.604 266.6C261.604 268.664 260.228 269.864 258.628 269.864C257.028 269.864 255.668 268.648 255.668 266.584C255.668 264.52 257.028 263.352 258.628 263.352C260.228 263.352 261.604 264.568 261.604 266.6ZM264.993 266.6C264.993 269.384 266.769 271.144 269.265 271.144C271.441 271.144 272.865 269.928 273.313 268.184H271.745C271.425 269.288 270.561 269.912 269.265 269.912C267.665 269.912 266.481 268.776 266.481 266.6C266.481 264.456 267.665 263.32 269.265 263.32C270.561 263.32 271.441 263.992 271.745 265.048H273.313C272.865 263.208 271.441 262.088 269.265 262.088C266.769 262.088 264.993 263.848 264.993 266.6ZM275.255 271H276.711V262.232H275.255V271ZM276.007 260.808C276.535 260.808 276.967 260.376 276.967 259.816C276.967 259.256 276.535 258.824 276.007 258.824C275.447 258.824 275.015 259.256 275.015 259.816C275.015 260.376 275.447 260.808 276.007 260.808ZM285.609 271H287.049V265.832C287.049 263.32 285.497 262.072 283.465 262.072C282.281 262.072 281.225 262.568 280.649 263.48V262.232H279.193V271H280.649V266.152C280.649 264.264 281.673 263.336 283.161 263.336C284.633 263.336 285.609 264.248 285.609 266.04V271ZM289.427 271H290.883V262.232H289.427V271ZM290.179 260.808C290.707 260.808 291.139 260.376 291.139 259.816C291.139 259.256 290.707 258.824 290.179 258.824C289.619 258.824 289.187 259.256 289.187 259.816C289.187 260.376 289.619 260.808 290.179 260.808ZM292.821 266.584C292.821 269.304 294.629 271.144 296.965 271.144C298.581 271.144 299.717 270.312 300.245 269.368V271H301.717V262.232H300.245V263.832C299.733 262.92 298.613 262.088 296.981 262.088C294.629 262.088 292.821 263.848 292.821 266.584ZM300.245 266.6C300.245 268.664 298.869 269.864 297.269 269.864C295.669 269.864 294.309 268.648 294.309 266.584C294.309 264.52 295.669 263.352 297.269 263.352C298.869 263.352 300.245 264.568 300.245 266.6ZM113.091 297H114.547V288.232H113.091V297ZM113.843 286.808C114.371 286.808 114.803 286.376 114.803 285.816C114.803 285.256 114.371 284.824 113.843 284.824C113.283 284.824 112.851 285.256 112.851 285.816C112.851 286.376 113.283 286.808 113.843 286.808ZM118.485 289.848V288.232H117.029V301.16H118.485V295.384C119.029 296.28 120.165 297.144 121.765 297.144C124.117 297.144 125.925 295.304 125.925 292.584C125.925 289.848 124.117 288.088 121.765 288.088C120.165 288.088 119.013 288.92 118.485 289.848ZM124.437 292.584C124.437 294.648 123.077 295.864 121.461 295.864C119.877 295.864 118.485 294.664 118.485 292.6C118.485 290.568 119.877 289.352 121.461 289.352C123.077 289.352 124.437 290.52 124.437 292.584ZM134.145 294.616C134.081 291.48 128.993 292.616 128.993 290.536C128.993 289.832 129.633 289.32 130.705 289.32C131.873 289.32 132.545 289.96 132.609 290.84H134.065C133.969 289.128 132.689 288.088 130.753 288.088C128.801 288.088 127.537 289.192 127.537 290.536C127.537 293.8 132.721 292.664 132.721 294.616C132.721 295.336 132.081 295.912 130.929 295.912C129.697 295.912 128.945 295.272 128.865 294.424H127.361C127.457 296.024 128.897 297.144 130.945 297.144C132.881 297.144 134.145 296.056 134.145 294.616ZM143.977 288.232H142.521V293.048C142.521 294.936 141.513 295.864 140.009 295.864C138.537 295.864 137.561 294.952 137.561 293.176V288.232H136.121V293.368C136.121 295.88 137.705 297.128 139.721 297.128C140.889 297.128 141.961 296.616 142.521 295.704V297H143.977V288.232ZM159.091 297H160.531V291.832C160.531 289.32 158.979 288.072 156.979 288.072C155.635 288.072 154.387 288.76 153.875 290.024C153.299 288.712 152.099 288.072 150.659 288.072C149.507 288.072 148.467 288.568 147.891 289.496V288.232H146.435V297H147.891V292.168C147.891 290.28 148.899 289.336 150.371 289.336C151.811 289.336 152.771 290.248 152.771 292.04V297H154.211V292.168C154.211 290.28 155.219 289.336 156.691 289.336C158.131 289.336 159.091 290.248 159.091 292.04V297ZM161.655 299.288H162.632L164.424 294.984H162.824L161.655 299.288ZM176.773 297H178.213V291.832C178.213 289.32 176.661 288.072 174.629 288.072C173.445 288.072 172.389 288.568 171.813 289.48V288.232H170.357V297H171.813V292.152C171.813 290.264 172.837 289.336 174.325 289.336C175.797 289.336 176.773 290.248 176.773 292.04V297ZM184.319 289.32C185.823 289.32 187.103 290.264 187.087 291.976H181.551C181.711 290.264 182.895 289.32 184.319 289.32ZM188.415 294.296H186.847C186.527 295.24 185.695 295.912 184.383 295.912C182.895 295.912 181.647 294.936 181.535 293.16H188.543C188.575 292.856 188.591 292.6 188.591 292.28C188.591 289.88 186.927 288.088 184.383 288.088C181.823 288.088 180.047 289.832 180.047 292.6C180.047 295.384 181.887 297.144 184.383 297.144C186.559 297.144 187.967 295.896 188.415 294.296ZM189.969 292.6C189.969 295.384 191.745 297.144 194.241 297.144C196.417 297.144 197.841 295.928 198.289 294.184H196.721C196.401 295.288 195.537 295.912 194.241 295.912C192.641 295.912 191.457 294.776 191.457 292.6C191.457 290.456 192.641 289.32 194.241 289.32C195.537 289.32 196.417 289.992 196.721 291.048H198.289C197.841 289.208 196.417 288.088 194.241 288.088C191.745 288.088 189.969 289.848 189.969 292.6ZM203.954 292.584C203.954 295.304 205.762 297.144 208.114 297.144C209.714 297.144 210.85 296.328 211.378 295.352V297H212.85V285.16H211.378V289.8C210.77 288.792 209.506 288.088 208.13 288.088C205.762 288.088 203.954 289.848 203.954 292.584ZM211.378 292.6C211.378 294.664 210.002 295.864 208.402 295.864C206.802 295.864 205.442 294.648 205.442 292.584C205.442 290.52 206.802 289.352 208.402 289.352C210.002 289.352 211.378 290.568 211.378 292.6ZM215.31 297H216.766V288.232H215.31V297ZM216.062 286.808C216.59 286.808 217.022 286.376 217.022 285.816C217.022 285.256 216.59 284.824 216.062 284.824C215.502 284.824 215.07 285.256 215.07 285.816C215.07 286.376 215.502 286.808 216.062 286.808ZM218.704 292.584C218.704 295.304 220.512 297.144 222.864 297.144C224.464 297.144 225.6 296.296 226.128 295.352V297.192C226.128 299.064 224.96 300.056 223.408 300.056C221.968 300.056 220.928 299.336 220.608 298.28H219.168C219.456 300.152 221.104 301.32 223.408 301.32C225.984 301.32 227.6 299.608 227.6 297.192V288.232H226.128V289.832C225.616 288.888 224.464 288.088 222.864 288.088C220.512 288.088 218.704 289.848 218.704 292.584ZM226.128 292.6C226.128 294.664 224.752 295.864 223.152 295.864C221.552 295.864 220.192 294.648 220.192 292.584C220.192 290.52 221.552 289.352 223.152 289.352C224.752 289.352 226.128 290.568 226.128 292.6ZM236.476 297H237.916V291.832C237.916 289.32 236.364 288.072 234.332 288.072C233.148 288.072 232.092 288.568 231.516 289.48V288.232H230.06V297H231.516V292.152C231.516 290.264 232.54 289.336 234.028 289.336C235.5 289.336 236.476 290.248 236.476 292.04V297ZM240.295 297H241.751V288.232H240.295V297ZM241.047 286.808C241.575 286.808 242.007 286.376 242.007 285.816C242.007 285.256 241.575 284.824 241.047 284.824C240.487 284.824 240.055 285.256 240.055 285.816C240.055 286.376 240.487 286.808 241.047 286.808ZM250.536 294.616C250.472 291.48 245.384 292.616 245.384 290.536C245.384 289.832 246.024 289.32 247.096 289.32C248.264 289.32 248.936 289.96 249 290.84H250.456C250.36 289.128 249.08 288.088 247.144 288.088C245.192 288.088 243.928 289.192 243.928 290.536C243.928 293.8 249.112 292.664 249.112 294.616C249.112 295.336 248.472 295.912 247.32 295.912C246.088 295.912 245.336 295.272 245.256 294.424H243.752C243.848 296.024 245.288 297.144 247.336 297.144C249.272 297.144 250.536 296.056 250.536 294.616ZM258.895 294.616C258.831 291.48 253.743 292.616 253.743 290.536C253.743 289.832 254.383 289.32 255.455 289.32C256.623 289.32 257.295 289.96 257.359 290.84H258.815C258.719 289.128 257.439 288.088 255.503 288.088C253.551 288.088 252.287 289.192 252.287 290.536C252.287 293.8 257.471 292.664 257.471 294.616C257.471 295.336 256.831 295.912 255.679 295.912C254.447 295.912 253.695 295.272 253.615 294.424H252.111C252.207 296.024 253.647 297.144 255.695 297.144C257.631 297.144 258.895 296.056 258.895 294.616ZM260.951 297H262.407V288.232H260.951V297ZM261.703 286.808C262.231 286.808 262.663 286.376 262.663 285.816C262.663 285.256 262.231 284.824 261.703 284.824C261.143 284.824 260.711 285.256 260.711 285.816C260.711 286.376 261.143 286.808 261.703 286.808ZM277.544 297H278.984V291.832C278.984 289.32 277.432 288.072 275.432 288.072C274.088 288.072 272.84 288.76 272.328 290.024C271.752 288.712 270.552 288.072 269.112 288.072C267.96 288.072 266.92 288.568 266.344 289.496V288.232H264.888V297H266.344V292.168C266.344 290.28 267.352 289.336 268.824 289.336C270.264 289.336 271.224 290.248 271.224 292.04V297H272.664V292.168C272.664 290.28 273.672 289.336 275.144 289.336C276.584 289.336 277.544 290.248 277.544 292.04V297ZM174.204 315.848V314.232H172.748V327.16H174.204V321.384C174.748 322.28 175.884 323.144 177.484 323.144C179.836 323.144 181.644 321.304 181.644 318.584C181.644 315.848 179.836 314.088 177.484 314.088C175.884 314.088 174.732 314.92 174.204 315.848ZM180.156 318.584C180.156 320.648 178.796 321.864 177.18 321.864C175.596 321.864 174.204 320.664 174.204 318.6C174.204 316.568 175.596 315.352 177.18 315.352C178.796 315.352 180.156 316.52 180.156 318.584ZM191.336 314.232H189.88V319.048C189.88 320.936 188.872 321.864 187.368 321.864C185.896 321.864 184.92 320.952 184.92 319.176V314.232H183.48V319.368C183.48 321.88 185.064 323.128 187.08 323.128C188.248 323.128 189.32 322.616 189.88 321.704V323H191.336V314.232ZM195.251 318.232C195.251 316.2 196.307 315.576 197.699 315.576H198.083V314.072C196.691 314.072 195.747 314.68 195.251 315.656V314.232H193.795V323H195.251V318.232ZM207.539 314.232H206.083V319.048C206.083 320.936 205.075 321.864 203.571 321.864C202.099 321.864 201.123 320.952 201.123 319.176V314.232H199.683V319.368C199.683 321.88 201.267 323.128 203.283 323.128C204.451 323.128 205.523 322.616 206.083 321.704V323H207.539V314.232ZM216.302 320.616C216.238 317.48 211.15 318.616 211.15 316.536C211.15 315.832 211.79 315.32 212.862 315.32C214.03 315.32 214.702 315.96 214.766 316.84H216.222C216.126 315.128 214.846 314.088 212.91 314.088C210.958 314.088 209.694 315.192 209.694 316.536C209.694 319.8 214.878 318.664 214.878 320.616C214.878 321.336 214.238 321.912 213.086 321.912C211.854 321.912 211.102 321.272 211.022 320.424H209.518C209.614 322.024 211.054 323.144 213.102 323.144C215.038 323.144 216.302 322.056 216.302 320.616ZM219.781 322.104C219.781 321.544 219.349 321.112 218.821 321.112C218.261 321.112 217.829 321.544 217.829 322.104C217.829 322.664 218.261 323.096 218.821 323.096C219.349 323.096 219.781 322.664 219.781 322.104Z" fill="#808080"/>
</g>
<g id="Group 51">
<g id="Rectangle 17_2" filter="url(#filter2_d_0_1)">
<rect x="416" y="20" width="340" height="363" rx="30" fill="white"/>
</g>
</g>
</g>
<defs>
<filter id="filter0_d_0_1" x="0" y="0" width="400" height="423" filterUnits="userSpaceOnUse" color-interpolation-filters="sRGB">
<feFlood flood-opacity="0" result="BackgroundImageFix"/>
<feColorMatrix in="SourceAlpha" type="matrix" values="0 0 0 0 0 0 0 0 0 0 0 0 0 0 0 0 0 0 127 0" result="hardAlpha"/>
<feOffset dx="4" dy="10"/>
<feGaussianBlur stdDeviation="15"/>
<feComposite in2="hardAlpha" operator="out"/>
<feColorMatrix type="matrix" values="0 0 0 0 0 0 0 0 0 0 0 0 0 0 0 0 0 0 0.03 0"/>
<feBlend mode="normal" in2="BackgroundImageFix" result="effect1_dropShadow_0_1"/>
<feBlend mode="normal" in="SourceGraphic" in2="effect1_dropShadow_0_1" result="shape"/>
</filter>
<filter id="filter1_d_0_1" x="125" y="60" width="150" height="150" filterUnits="userSpaceOnUse" color-interpolation-filters="sRGB">
<feFlood flood-opacity="0" result="BackgroundImageFix"/>
<feColorMatrix in="SourceAlpha" type="matrix" values="0 0 0 0 0 0 0 0 0 0 0 0 0 0 0 0 0 0 127 0" result="hardAlpha"/>
<feOffset dx="4" dy="10"/>
<feGaussianBlur stdDeviation="15"/>
<feComposite in2="hardAlpha" operator="out"/>
<feColorMatrix type="matrix" values="0 0 0 0 0.262745 0 0 0 0 0.380392 0 0 0 0 0.933333 0 0 0 0.4 0"/>
<feBlend mode="normal" in2="BackgroundImageFix" result="effect1_dropShadow_0_1"/>
<feBlend mode="normal" in="SourceGraphic" in2="effect1_dropShadow_0_1" result="shape"/>
</filter>
<filter id="filter2_d_0_1" x="390" y="0" width="400" height="423" filterUnits="userSpaceOnUse" color-interpolation-filters="sRGB">
<feFlood flood-opacity="0" result="BackgroundImageFix"/>
<feColorMatrix in="SourceAlpha" type="matrix" values="0 0 0 0 0 0 0 0 0 0 0 0 0 0 0 0 0 0 127 0" result="hardAlpha"/>
<feOffset dx="4" dy="10"/>
<feGaussianBlur stdDeviation="15"/>
<feComposite in2="hardAlpha" operator="out"/>
<feColorMatrix type="matrix" values="0 0 0 0 0 0 0 0 0 0 0 0 0 0 0 0 0 0 0.03 0"/>
<feBlend mode="normal" in2="BackgroundImageFix" result="effect1_dropShadow_0_1"/>
<feBlend mode="normal" in="SourceGraphic" in2="effect1_dropShadow_0_1" result="shape"/>
</filter>
<clipPath id="clip0_0_1">
<rect width="1440" height="8501" fill="white" transform="translate(-134 -3363)"/>
</clipPath>
</defs>
</svg>
