<svg width="460" height="192" viewBox="0 0 460 192" fill="none" xmlns="http://www.w3.org/2000/svg">
<rect width="460" height="192" fill="#1E1E1E"/>
<g id="Rezilla - Real Estate - Homepage - Web" clip-path="url(#clip0_0_1)">
<rect width="1440" height="8501" transform="translate(-135 -1731)" fill="white"/>
<g id="Group 24">
<g id="Rectangle 17" filter="url(#filter0_d_0_1)">
<rect x="26" y="20.0103" width="400" height="131" rx="30" fill="white"/>
</g>
<g id="&#240;&#159;&#166;&#134; icon &#34;smart home&#34;">
<g id="Group">
<path id="Vector" d="M86.531 104.883H75.1277C74.3736 104.883 73.7483 104.257 73.7483 103.503C73.7483 102.749 74.3736 102.124 75.1277 102.124H86.531C88.499 102.124 90.4301 100.487 90.7612 98.5371L93.2074 83.897C93.4281 82.5727 92.6926 80.6781 91.6626 79.8505L78.9165 69.6613C77.4451 68.4841 74.999 68.4841 73.546 69.6428L60.8001 79.8505C59.7517 80.6965 59.0344 82.5727 59.2551 83.897L59.7701 87.0051C59.8989 87.7592 59.3839 88.4765 58.6298 88.5869C57.8757 88.734 57.1768 88.2006 57.0481 87.4465L56.5331 84.3568C56.1469 82.0761 57.2504 79.1517 59.0713 77.6987L71.8172 67.4909C74.2817 65.5045 78.1624 65.5229 80.6454 67.5093L93.3913 77.6987C95.1938 79.1517 96.2973 82.0761 95.9295 84.3568L93.4833 98.9969C92.9315 102.252 89.8232 104.883 86.531 104.883Z" fill="#4361EE"/>
<path id="Vector_2" d="M63.3574 105.232C62.6033 105.232 61.9963 104.625 61.978 103.89C61.9228 101.407 60.2859 99.7697 57.8029 99.7145C57.0488 99.6961 56.4419 99.0708 56.4602 98.2983C56.4786 97.5442 57.0856 96.9557 57.8397 96.9557H57.8764C61.8308 97.0477 64.6632 99.8617 64.7368 103.816C64.7552 104.57 64.1482 105.214 63.3941 105.232C63.3758 105.232 63.3758 105.232 63.3574 105.232Z" fill="#4361EE"/>
<path id="Vector_3" d="M68.8751 105.232C68.121 105.232 67.4956 104.625 67.4956 103.871C67.4772 102.657 67.2749 101.499 66.9071 100.413C65.9691 97.7282 63.9643 95.7416 61.279 94.7852C60.1939 94.399 59.0351 94.1968 57.8213 94.1968C57.0672 94.1968 56.4418 93.5715 56.4602 92.799C56.4602 92.0449 57.0856 91.438 57.8397 91.438H57.8581C59.3846 91.4564 60.8376 91.7139 62.1986 92.1921C65.6748 93.4244 68.2681 96.0177 69.5004 99.4938C69.9786 100.855 70.2361 102.326 70.2545 103.834C70.2545 104.607 69.6476 105.232 68.8751 105.232Z" fill="#4361EE"/>
<path id="Vector_4" d="M57.8392 105.692C56.8093 105.692 56 104.864 56 103.853C56 102.841 56.8277 102.014 57.8392 102.014C58.8508 102.014 59.6785 102.841 59.6785 103.853C59.6785 104.864 58.8692 105.692 57.8392 105.692Z" fill="#4361EE"/>
</g>
</g>
<path id="Donec porttitor euismod" d="M126.859 50.5273H122.455V64.0103H126.859C131.185 64.0103 134.017 61.4689 134.017 57.3173C134.017 53.1463 131.185 50.5273 126.859 50.5273ZM124.667 62.2061V52.3315H126.859C130.04 52.3315 131.748 54.2327 131.748 57.3173C131.748 60.3825 130.04 62.2061 126.859 62.2061H124.667ZM146.394 58.6559C146.394 55.2997 143.989 53.1463 140.943 53.1463C137.897 53.1463 135.491 55.2997 135.491 58.6559C135.491 62.0121 137.8 64.1849 140.846 64.1849C143.911 64.1849 146.394 62.0121 146.394 58.6559ZM137.742 58.6559C137.742 56.2309 139.236 55.0669 140.904 55.0669C142.553 55.0669 144.124 56.2309 144.124 58.6559C144.124 61.0809 142.495 62.2643 140.846 62.2643C139.177 62.2643 137.742 61.0809 137.742 58.6559ZM156.166 64.0103H158.358V57.7053C158.358 54.7177 156.476 53.1463 153.974 53.1463C152.693 53.1463 151.51 53.6701 150.792 54.5431V53.3209H148.581V64.0103H150.792V58.0351C150.792 56.0757 151.859 55.0669 153.489 55.0669C155.099 55.0669 156.166 56.0757 156.166 58.0351V64.0103ZM165.68 55.0087C167.329 55.0087 168.629 56.0563 168.668 57.7053H162.751C162.983 56.0175 164.186 55.0087 165.68 55.0087ZM170.685 60.8287H168.299C167.892 61.6629 167.135 62.3225 165.777 62.3225C164.147 62.3225 162.886 61.2555 162.731 59.4901H170.899C170.957 59.1215 170.976 58.7723 170.976 58.4037C170.976 55.2609 168.823 53.1463 165.777 53.1463C162.615 53.1463 160.442 55.2997 160.442 58.6559C160.442 62.0121 162.712 64.1849 165.777 64.1849C168.396 64.1849 170.084 62.6911 170.685 60.8287ZM172.415 58.6559C172.415 62.0121 174.588 64.1849 177.653 64.1849C180.272 64.1849 181.98 62.7299 182.581 60.6347H180.195C179.787 61.7405 178.973 62.3225 177.653 62.3225C175.869 62.3225 174.685 61.0033 174.685 58.6559C174.685 56.3279 175.869 55.0087 177.653 55.0087C178.973 55.0087 179.826 55.6683 180.195 56.6965H182.581C181.98 54.4461 180.272 53.1463 177.653 53.1463C174.588 53.1463 172.415 55.3191 172.415 58.6559ZM192.036 54.8923V53.3209H189.825V69.0931H192.036V62.4583C192.735 63.2925 193.996 64.1849 195.761 64.1849C198.574 64.1849 200.786 61.9151 200.786 58.6171C200.786 55.3191 198.574 53.1463 195.761 53.1463C194.015 53.1463 192.715 53.9999 192.036 54.8923ZM198.535 58.6171C198.535 60.9257 196.944 62.2643 195.276 62.2643C193.627 62.2643 192.036 60.9645 192.036 58.6559C192.036 56.3667 193.627 55.0669 195.276 55.0669C196.944 55.0669 198.535 56.3085 198.535 58.6171ZM213.158 58.6559C213.158 55.2997 210.752 53.1463 207.706 53.1463C204.66 53.1463 202.255 55.2997 202.255 58.6559C202.255 62.0121 204.563 64.1849 207.609 64.1849C210.674 64.1849 213.158 62.0121 213.158 58.6559ZM204.505 58.6559C204.505 56.2309 205.999 55.0669 207.667 55.0669C209.316 55.0669 210.888 56.2309 210.888 58.6559C210.888 61.0809 209.258 62.2643 207.609 62.2643C205.941 62.2643 204.505 61.0809 204.505 58.6559ZM217.555 58.3843C217.555 56.1145 218.564 55.4355 220.194 55.4355H220.756V53.1463C219.243 53.1463 218.176 53.8059 217.555 54.8729V53.3209H215.344V64.0103H217.555V58.3843ZM223.139 61.0421C223.139 63.2149 224.322 64.0103 226.223 64.0103H227.969V62.1673H226.611C225.68 62.1673 225.37 61.8375 225.37 61.0421V55.1251H227.969V53.3209H225.37V50.6631H223.139V53.3209H221.878V55.1251H223.139V61.0421ZM230.357 61.0421C230.357 63.2149 231.54 64.0103 233.441 64.0103H235.187V62.1673H233.829C232.898 62.1673 232.588 61.8375 232.588 61.0421V55.1251H235.187V53.3209H232.588V50.6631H230.357V53.3209H229.096V55.1251H230.357V61.0421ZM237.226 64.0103H239.437V53.3209H237.226V64.0103ZM238.351 51.9047C239.127 51.9047 239.748 51.2839 239.748 50.4885C239.748 49.6931 239.127 49.0723 238.351 49.0723C237.555 49.0723 236.935 49.6931 236.935 50.4885C236.935 51.2839 237.555 51.9047 238.351 51.9047ZM242.69 61.0421C242.69 63.2149 243.874 64.0103 245.775 64.0103H247.521V62.1673H246.163C245.232 62.1673 244.921 61.8375 244.921 61.0421V55.1251H247.521V53.3209H244.921V50.6631H242.69V53.3209H241.429V55.1251H242.69V61.0421ZM259.744 58.6559C259.744 55.2997 257.339 53.1463 254.293 53.1463C251.247 53.1463 248.841 55.2997 248.841 58.6559C248.841 62.0121 251.15 64.1849 254.196 64.1849C257.261 64.1849 259.744 62.0121 259.744 58.6559ZM251.092 58.6559C251.092 56.2309 252.586 55.0669 254.254 55.0669C255.903 55.0669 257.474 56.2309 257.474 58.6559C257.474 61.0809 255.845 62.2643 254.196 62.2643C252.527 62.2643 251.092 61.0809 251.092 58.6559ZM264.142 58.3843C264.142 56.1145 265.151 55.4355 266.78 55.4355H267.343V53.1463C265.83 53.1463 264.763 53.8059 264.142 54.8729V53.3209H261.93V64.0103H264.142V58.3843ZM278.916 55.0087C280.565 55.0087 281.865 56.0563 281.904 57.7053H275.987C276.22 56.0175 277.422 55.0087 278.916 55.0087ZM283.921 60.8287H281.535C281.128 61.6629 280.371 62.3225 279.013 62.3225C277.384 62.3225 276.123 61.2555 275.967 59.4901H284.135C284.193 59.1215 284.212 58.7723 284.212 58.4037C284.212 55.2609 282.059 53.1463 279.013 53.1463C275.851 53.1463 273.678 55.2997 273.678 58.6559C273.678 62.0121 275.948 64.1849 279.013 64.1849C281.632 64.1849 283.32 62.6911 283.921 60.8287ZM296.069 53.3209H293.858V59.2767C293.858 61.2361 292.791 62.2449 291.161 62.2449C289.551 62.2449 288.484 61.2361 288.484 59.2767V53.3209H286.292V59.6065C286.292 62.5941 288.193 64.1655 290.696 64.1655C291.957 64.1655 293.159 63.6417 293.858 62.7299V64.0103H296.069V53.3209ZM298.987 64.0103H301.199V53.3209H298.987V64.0103ZM300.113 51.9047C300.889 51.9047 301.509 51.2839 301.509 50.4885C301.509 49.6931 300.889 49.0723 300.113 49.0723C299.317 49.0723 298.696 49.6931 298.696 50.4885C298.696 51.2839 299.317 51.9047 300.113 51.9047ZM312.076 61.0227C311.96 57.1621 305.926 58.3649 305.926 56.2115C305.926 55.4937 306.547 55.0087 307.73 55.0087C308.933 55.0087 309.651 55.6489 309.729 56.5801H311.94C311.824 54.4461 310.233 53.1463 307.808 53.1463C305.286 53.1463 303.695 54.5237 303.695 56.2309C303.695 60.1497 309.903 58.9469 309.903 61.0421C309.903 61.7793 309.224 62.3225 307.944 62.3225C306.722 62.3225 305.887 61.6047 305.81 60.7317H303.521C303.618 62.6717 305.422 64.1849 307.983 64.1849C310.505 64.1849 312.076 62.8269 312.076 61.0227ZM329.617 64.0103H331.809V57.7053C331.809 54.7177 329.908 53.1463 327.406 53.1463C325.854 53.1463 324.34 53.9611 323.681 55.2609C322.944 53.8641 321.527 53.1463 319.84 53.1463C318.559 53.1463 317.395 53.6701 316.677 54.5431V53.3209H314.466V64.0103H316.677V58.0351C316.677 56.0757 317.744 55.0669 319.374 55.0669C320.984 55.0669 322.051 56.0757 322.051 58.0351V64.0103H324.243V58.0351C324.243 56.0757 325.31 55.0669 326.94 55.0669C328.55 55.0669 329.617 56.0757 329.617 58.0351V64.0103ZM344.809 58.6559C344.809 55.2997 342.403 53.1463 339.357 53.1463C336.311 53.1463 333.906 55.2997 333.906 58.6559C333.906 62.0121 336.214 64.1849 339.26 64.1849C342.325 64.1849 344.809 62.0121 344.809 58.6559ZM336.156 58.6559C336.156 56.2309 337.65 55.0669 339.318 55.0669C340.967 55.0669 342.539 56.2309 342.539 58.6559C342.539 61.0809 340.909 62.2643 339.26 62.2643C337.592 62.2643 336.156 61.0809 336.156 58.6559ZM346.258 58.6171C346.258 61.9151 348.489 64.1849 351.302 64.1849C353.048 64.1849 354.328 63.3701 355.007 62.4001V64.0103H357.238V49.6543H355.007V54.8147C354.192 53.8059 352.718 53.1463 351.321 53.1463C348.489 53.1463 346.258 55.3191 346.258 58.6171ZM355.007 58.6559C355.007 60.9645 353.436 62.2643 351.767 62.2643C350.118 62.2643 348.527 60.9257 348.527 58.6171C348.527 56.3085 350.118 55.0669 351.767 55.0669C353.436 55.0669 355.007 56.3667 355.007 58.6559Z" fill="#4361EE"/>
<path id="Nullam a lacinia ipsum, nec dignissim purus. Nulla" d="M129.544 83.8423V92.7063L123.688 83.8423H122.232V95.0103H123.688V86.1303L129.544 95.0103H131V83.8423H129.544ZM141.258 86.2423H139.802V91.0583C139.802 92.9463 138.794 93.8743 137.29 93.8743C135.818 93.8743 134.842 92.9623 134.842 91.1863V86.2423H133.402V91.3783C133.402 93.8903 134.986 95.1383 137.002 95.1383C138.17 95.1383 139.242 94.6263 139.802 93.7143V95.0103H141.258V86.2423ZM143.716 95.0103H145.172V83.1703H143.716V95.0103ZM147.654 95.0103H149.11V83.1703H147.654V95.0103ZM151.047 90.5943C151.047 93.3143 152.855 95.1543 155.191 95.1543C156.807 95.1543 157.943 94.3223 158.471 93.3783V95.0103H159.943V86.2423H158.471V87.8423C157.959 86.9303 156.839 86.0983 155.207 86.0983C152.855 86.0983 151.047 87.8583 151.047 90.5943ZM158.471 90.6103C158.471 92.6743 157.095 93.8743 155.495 93.8743C153.895 93.8743 152.535 92.6583 152.535 90.5943C152.535 88.5303 153.895 87.3623 155.495 87.3623C157.095 87.3623 158.471 88.5783 158.471 90.6103ZM175.06 95.0103H176.5V89.8423C176.5 87.3303 174.948 86.0823 172.948 86.0823C171.604 86.0823 170.356 86.7703 169.844 88.0343C169.268 86.7223 168.068 86.0823 166.628 86.0823C165.476 86.0823 164.436 86.5783 163.86 87.5063V86.2423H162.404V95.0103H163.86V90.1783C163.86 88.2903 164.868 87.3463 166.34 87.3463C167.78 87.3463 168.74 88.2583 168.74 90.0503V95.0103H170.18V90.1783C170.18 88.2903 171.188 87.3463 172.66 87.3463C174.1 87.3463 175.06 88.2583 175.06 90.0503V95.0103ZM182.61 90.5943C182.61 93.3143 184.418 95.1543 186.754 95.1543C188.37 95.1543 189.506 94.3223 190.034 93.3783V95.0103H191.506V86.2423H190.034V87.8423C189.522 86.9303 188.402 86.0983 186.77 86.0983C184.418 86.0983 182.61 87.8583 182.61 90.5943ZM190.034 90.6103C190.034 92.6743 188.658 93.8743 187.058 93.8743C185.458 93.8743 184.098 92.6583 184.098 90.5943C184.098 88.5303 185.458 87.3623 187.058 87.3623C188.658 87.3623 190.034 88.5783 190.034 90.6103ZM198.232 95.0103H199.688V83.1703H198.232V95.0103ZM201.626 90.5943C201.626 93.3143 203.434 95.1543 205.77 95.1543C207.386 95.1543 208.522 94.3223 209.05 93.3783V95.0103H210.522V86.2423H209.05V87.8423C208.538 86.9303 207.418 86.0983 205.786 86.0983C203.434 86.0983 201.626 87.8583 201.626 90.5943ZM209.05 90.6103C209.05 92.6743 207.674 93.8743 206.074 93.8743C204.474 93.8743 203.114 92.6583 203.114 90.5943C203.114 88.5303 204.474 87.3623 206.074 87.3623C207.674 87.3623 209.05 88.5783 209.05 90.6103ZM212.438 90.6103C212.438 93.3943 214.214 95.1543 216.71 95.1543C218.886 95.1543 220.31 93.9383 220.758 92.1943H219.19C218.87 93.2983 218.006 93.9223 216.71 93.9223C215.11 93.9223 213.926 92.7863 213.926 90.6103C213.926 88.4663 215.11 87.3303 216.71 87.3303C218.006 87.3303 218.886 88.0023 219.19 89.0583H220.758C220.31 87.2183 218.886 86.0983 216.71 86.0983C214.214 86.0983 212.438 87.8583 212.438 90.6103ZM222.701 95.0103H224.157V86.2423H222.701V95.0103ZM223.453 84.8183C223.981 84.8183 224.413 84.3863 224.413 83.8263C224.413 83.2663 223.981 82.8343 223.453 82.8343C222.893 82.8343 222.461 83.2663 222.461 83.8263C222.461 84.3863 222.893 84.8183 223.453 84.8183ZM233.054 95.0103H234.494V89.8423C234.494 87.3303 232.942 86.0823 230.91 86.0823C229.726 86.0823 228.67 86.5783 228.094 87.4903V86.2423H226.638V95.0103H228.094V90.1623C228.094 88.2743 229.118 87.3463 230.606 87.3463C232.078 87.3463 233.054 88.2583 233.054 90.0503V95.0103ZM236.873 95.0103H238.329V86.2423H236.873V95.0103ZM237.625 84.8183C238.153 84.8183 238.585 84.3863 238.585 83.8263C238.585 83.2663 238.153 82.8343 237.625 82.8343C237.065 82.8343 236.633 83.2663 236.633 83.8263C236.633 84.3863 237.065 84.8183 237.625 84.8183ZM240.266 90.5943C240.266 93.3143 242.074 95.1543 244.41 95.1543C246.026 95.1543 247.162 94.3223 247.69 93.3783V95.0103H249.162V86.2423H247.69V87.8423C247.178 86.9303 246.058 86.0983 244.426 86.0983C242.074 86.0983 240.266 87.8583 240.266 90.5943ZM247.69 90.6103C247.69 92.6743 246.314 93.8743 244.714 93.8743C243.114 93.8743 241.754 92.6583 241.754 90.5943C241.754 88.5303 243.114 87.3623 244.714 87.3623C246.314 87.3623 247.69 88.5783 247.69 90.6103ZM255.888 95.0103H257.344V86.2423H255.888V95.0103ZM256.64 84.8183C257.168 84.8183 257.6 84.3863 257.6 83.8263C257.6 83.2663 257.168 82.8343 256.64 82.8343C256.08 82.8343 255.648 83.2663 255.648 83.8263C255.648 84.3863 256.08 84.8183 256.64 84.8183ZM261.282 87.8583V86.2423H259.826V99.1703H261.282V93.3943C261.826 94.2903 262.962 95.1543 264.562 95.1543C266.914 95.1543 268.722 93.3143 268.722 90.5943C268.722 87.8583 266.914 86.0983 264.562 86.0983C262.962 86.0983 261.81 86.9303 261.282 87.8583ZM267.234 90.5943C267.234 92.6583 265.874 93.8743 264.258 93.8743C262.674 93.8743 261.282 92.6743 261.282 90.6103C261.282 88.5783 262.674 87.3623 264.258 87.3623C265.874 87.3623 267.234 88.5303 267.234 90.5943ZM276.942 92.6263C276.878 89.4903 271.79 90.6263 271.79 88.5463C271.79 87.8423 272.43 87.3303 273.502 87.3303C274.67 87.3303 275.342 87.9703 275.406 88.8503H276.862C276.766 87.1383 275.486 86.0983 273.55 86.0983C271.598 86.0983 270.334 87.2023 270.334 88.5463C270.334 91.8103 275.518 90.6743 275.518 92.6263C275.518 93.3463 274.878 93.9223 273.726 93.9223C272.494 93.9223 271.742 93.2823 271.662 92.4343H270.158C270.254 94.0343 271.694 95.1543 273.742 95.1543C275.678 95.1543 276.942 94.0663 276.942 92.6263ZM286.774 86.2423H285.318V91.0583C285.318 92.9463 284.31 93.8743 282.806 93.8743C281.334 93.8743 280.358 92.9623 280.358 91.1863V86.2423H278.918V91.3783C278.918 93.8903 280.502 95.1383 282.518 95.1383C283.686 95.1383 284.758 94.6263 285.318 93.7143V95.0103H286.774V86.2423ZM301.888 95.0103H303.328V89.8423C303.328 87.3303 301.776 86.0823 299.776 86.0823C298.432 86.0823 297.184 86.7703 296.672 88.0343C296.096 86.7223 294.896 86.0823 293.456 86.0823C292.304 86.0823 291.264 86.5783 290.688 87.5063V86.2423H289.232V95.0103H290.688V90.1783C290.688 88.2903 291.696 87.3463 293.168 87.3463C294.608 87.3463 295.568 88.2583 295.568 90.0503V95.0103H297.008V90.1783C297.008 88.2903 298.016 87.3463 299.488 87.3463C300.928 87.3463 301.888 88.2583 301.888 90.0503V95.0103ZM304.452 97.2983H305.428L307.22 92.9943H305.62L304.452 97.2983ZM319.57 95.0103H321.01V89.8423C321.01 87.3303 319.458 86.0823 317.426 86.0823C316.242 86.0823 315.186 86.5783 314.61 87.4903V86.2423H313.154V95.0103H314.61V90.1623C314.61 88.2743 315.634 87.3463 317.122 87.3463C318.594 87.3463 319.57 88.2583 319.57 90.0503V95.0103ZM327.116 87.3303C328.62 87.3303 329.9 88.2743 329.884 89.9863H324.348C324.508 88.2743 325.692 87.3303 327.116 87.3303ZM331.212 92.3063H329.644C329.324 93.2503 328.492 93.9223 327.18 93.9223C325.692 93.9223 324.444 92.9463 324.332 91.1703H331.34C331.372 90.8663 331.388 90.6103 331.388 90.2903C331.388 87.8903 329.724 86.0983 327.18 86.0983C324.62 86.0983 322.844 87.8423 322.844 90.6103C322.844 93.3943 324.684 95.1543 327.18 95.1543C329.356 95.1543 330.764 93.9063 331.212 92.3063ZM332.766 90.6103C332.766 93.3943 334.542 95.1543 337.038 95.1543C339.214 95.1543 340.638 93.9383 341.086 92.1943H339.518C339.198 93.2983 338.334 93.9223 337.038 93.9223C335.438 93.9223 334.254 92.7863 334.254 90.6103C334.254 88.4663 335.438 87.3303 337.038 87.3303C338.334 87.3303 339.214 88.0023 339.518 89.0583H341.086C340.638 87.2183 339.214 86.0983 337.038 86.0983C334.542 86.0983 332.766 87.8583 332.766 90.6103ZM121.688 116.594C121.688 119.314 123.496 121.154 125.848 121.154C127.448 121.154 128.584 120.338 129.112 119.362V121.01H130.584V109.17H129.112V113.81C128.504 112.802 127.24 112.098 125.864 112.098C123.496 112.098 121.688 113.858 121.688 116.594ZM129.112 116.61C129.112 118.674 127.736 119.874 126.136 119.874C124.536 119.874 123.176 118.658 123.176 116.594C123.176 114.53 124.536 113.362 126.136 113.362C127.736 113.362 129.112 114.578 129.112 116.61ZM133.045 121.01H134.501V112.242H133.045V121.01ZM133.797 110.818C134.325 110.818 134.757 110.386 134.757 109.826C134.757 109.266 134.325 108.834 133.797 108.834C133.237 108.834 132.805 109.266 132.805 109.826C132.805 110.386 133.237 110.818 133.797 110.818ZM136.438 116.594C136.438 119.314 138.246 121.154 140.598 121.154C142.198 121.154 143.334 120.306 143.862 119.362V121.202C143.862 123.074 142.694 124.066 141.142 124.066C139.702 124.066 138.662 123.346 138.342 122.29H136.902C137.19 124.162 138.838 125.33 141.142 125.33C143.718 125.33 145.334 123.618 145.334 121.202V112.242H143.862V113.842C143.35 112.898 142.198 112.098 140.598 112.098C138.246 112.098 136.438 113.858 136.438 116.594ZM143.862 116.61C143.862 118.674 142.486 119.874 140.886 119.874C139.286 119.874 137.926 118.658 137.926 116.594C137.926 114.53 139.286 113.362 140.886 113.362C142.486 113.362 143.862 114.578 143.862 116.61ZM154.211 121.01H155.651V115.842C155.651 113.33 154.099 112.082 152.067 112.082C150.883 112.082 149.827 112.578 149.251 113.49V112.242H147.795V121.01H149.251V116.162C149.251 114.274 150.275 113.346 151.763 113.346C153.235 113.346 154.211 114.258 154.211 116.05V121.01ZM158.029 121.01H159.485V112.242H158.029V121.01ZM158.781 110.818C159.309 110.818 159.741 110.386 159.741 109.826C159.741 109.266 159.309 108.834 158.781 108.834C158.221 108.834 157.789 109.266 157.789 109.826C157.789 110.386 158.221 110.818 158.781 110.818ZM168.27 118.626C168.206 115.49 163.118 116.626 163.118 114.546C163.118 113.842 163.758 113.33 164.83 113.33C165.998 113.33 166.67 113.97 166.734 114.85H168.19C168.094 113.138 166.814 112.098 164.878 112.098C162.926 112.098 161.662 113.202 161.662 114.546C161.662 117.81 166.846 116.674 166.846 118.626C166.846 119.346 166.206 119.922 165.054 119.922C163.822 119.922 163.07 119.282 162.99 118.434H161.486C161.582 120.034 163.022 121.154 165.07 121.154C167.006 121.154 168.27 120.066 168.27 118.626ZM176.63 118.626C176.566 115.49 171.478 116.626 171.478 114.546C171.478 113.842 172.118 113.33 173.19 113.33C174.358 113.33 175.03 113.97 175.094 114.85H176.55C176.454 113.138 175.174 112.098 173.238 112.098C171.286 112.098 170.022 113.202 170.022 114.546C170.022 117.81 175.206 116.674 175.206 118.626C175.206 119.346 174.566 119.922 173.414 119.922C172.182 119.922 171.43 119.282 171.35 118.434H169.846C169.942 120.034 171.382 121.154 173.43 121.154C175.366 121.154 176.63 120.066 176.63 118.626ZM178.685 121.01H180.141V112.242H178.685V121.01ZM179.437 110.818C179.965 110.818 180.397 110.386 180.397 109.826C180.397 109.266 179.965 108.834 179.437 108.834C178.877 108.834 178.445 109.266 178.445 109.826C178.445 110.386 178.877 110.818 179.437 110.818ZM195.279 121.01H196.719V115.842C196.719 113.33 195.167 112.082 193.167 112.082C191.823 112.082 190.575 112.77 190.063 114.034C189.487 112.722 188.287 112.082 186.847 112.082C185.695 112.082 184.655 112.578 184.079 113.506V112.242H182.623V121.01H184.079V116.178C184.079 114.29 185.087 113.346 186.559 113.346C187.999 113.346 188.959 114.258 188.959 116.05V121.01H190.399V116.178C190.399 114.29 191.407 113.346 192.879 113.346C194.319 113.346 195.279 114.258 195.279 116.05V121.01ZM204.829 113.858V112.242H203.373V125.17H204.829V119.394C205.373 120.29 206.509 121.154 208.109 121.154C210.461 121.154 212.269 119.314 212.269 116.594C212.269 113.858 210.461 112.098 208.109 112.098C206.509 112.098 205.357 112.93 204.829 113.858ZM210.781 116.594C210.781 118.658 209.421 119.874 207.805 119.874C206.221 119.874 204.829 118.674 204.829 116.61C204.829 114.578 206.221 113.362 207.805 113.362C209.421 113.362 210.781 114.53 210.781 116.594ZM221.961 112.242H220.505V117.058C220.505 118.946 219.497 119.874 217.993 119.874C216.521 119.874 215.545 118.962 215.545 117.186V112.242H214.105V117.378C214.105 119.89 215.689 121.138 217.705 121.138C218.873 121.138 219.945 120.626 220.505 119.714V121.01H221.961V112.242ZM225.876 116.242C225.876 114.21 226.932 113.586 228.324 113.586H228.708V112.082C227.316 112.082 226.372 112.69 225.876 113.666V112.242H224.42V121.01H225.876V116.242ZM238.164 112.242H236.708V117.058C236.708 118.946 235.7 119.874 234.196 119.874C232.724 119.874 231.748 118.962 231.748 117.186V112.242H230.308V117.378C230.308 119.89 231.892 121.138 233.908 121.138C235.076 121.138 236.148 120.626 236.708 119.714V121.01H238.164V112.242ZM246.927 118.626C246.863 115.49 241.775 116.626 241.775 114.546C241.775 113.842 242.415 113.33 243.487 113.33C244.655 113.33 245.327 113.97 245.391 114.85H246.847C246.751 113.138 245.471 112.098 243.535 112.098C241.583 112.098 240.319 113.202 240.319 114.546C240.319 117.81 245.503 116.674 245.503 118.626C245.503 119.346 244.863 119.922 243.711 119.922C242.479 119.922 241.727 119.282 241.647 118.434H240.143C240.239 120.034 241.679 121.154 243.727 121.154C245.663 121.154 246.927 120.066 246.927 118.626ZM250.406 120.114C250.406 119.554 249.974 119.122 249.446 119.122C248.886 119.122 248.454 119.554 248.454 120.114C248.454 120.674 248.886 121.106 249.446 121.106C249.974 121.106 250.406 120.674 250.406 120.114ZM263.919 109.842V118.706L258.063 109.842H256.607V121.01H258.063V112.13L263.919 121.01H265.375V109.842H263.919ZM275.633 112.242H274.177V117.058C274.177 118.946 273.169 119.874 271.665 119.874C270.193 119.874 269.217 118.962 269.217 117.186V112.242H267.777V117.378C267.777 119.89 269.361 121.138 271.377 121.138C272.545 121.138 273.617 120.626 274.177 119.714V121.01H275.633V112.242ZM278.091 121.01H279.547V109.17H278.091V121.01ZM282.029 121.01H283.485V109.17H282.029V121.01ZM285.422 116.594C285.422 119.314 287.23 121.154 289.566 121.154C291.182 121.154 292.318 120.322 292.846 119.378V121.01H294.318V112.242H292.846V113.842C292.334 112.93 291.214 112.098 289.582 112.098C287.23 112.098 285.422 113.858 285.422 116.594ZM292.846 116.61C292.846 118.674 291.47 119.874 289.87 119.874C288.27 119.874 286.91 118.658 286.91 116.594C286.91 114.53 288.27 113.362 289.87 113.362C291.47 113.362 292.846 114.578 292.846 116.61Z" fill="#808080"/>
</g>
<g id="Group 25">
<g id="Rectangle 17_2" filter="url(#filter1_d_0_1)">
<rect x="26" y="181.01" width="400" height="131" rx="30" fill="white"/>
</g>
</g>
</g>
<defs>
<filter id="filter0_d_0_1" x="0" y="0.0102539" width="460" height="191" filterUnits="userSpaceOnUse" color-interpolation-filters="sRGB">
<feFlood flood-opacity="0" result="BackgroundImageFix"/>
<feColorMatrix in="SourceAlpha" type="matrix" values="0 0 0 0 0 0 0 0 0 0 0 0 0 0 0 0 0 0 127 0" result="hardAlpha"/>
<feOffset dx="4" dy="10"/>
<feGaussianBlur stdDeviation="15"/>
<feComposite in2="hardAlpha" operator="out"/>
<feColorMatrix type="matrix" values="0 0 0 0 0 0 0 0 0 0 0 0 0 0 0 0 0 0 0.06 0"/>
<feBlend mode="normal" in2="BackgroundImageFix" result="effect1_dropShadow_0_1"/>
<feBlend mode="normal" in="SourceGraphic" in2="effect1_dropShadow_0_1" result="shape"/>
</filter>
<filter id="filter1_d_0_1" x="0" y="161.01" width="460" height="191" filterUnits="userSpaceOnUse" color-interpolation-filters="sRGB">
<feFlood flood-opacity="0" result="BackgroundImageFix"/>
<feColorMatrix in="SourceAlpha" type="matrix" values="0 0 0 0 0 0 0 0 0 0 0 0 0 0 0 0 0 0 127 0" result="hardAlpha"/>
<feOffset dx="4" dy="10"/>
<feGaussianBlur stdDeviation="15"/>
<feComposite in2="hardAlpha" operator="out"/>
<feColorMatrix type="matrix" values="0 0 0 0 0 0 0 0 0 0 0 0 0 0 0 0 0 0 0.06 0"/>
<feBlend mode="normal" in2="BackgroundImageFix" result="effect1_dropShadow_0_1"/>
<feBlend mode="normal" in="SourceGraphic" in2="effect1_dropShadow_0_1" result="shape"/>
</filter>
<clipPath id="clip0_0_1">
<rect width="1440" height="8501" fill="white" transform="translate(-135 -1731)"/>
</clipPath>
</defs>
</svg>
